<svg xmlns="http://www.w3.org/2000/svg" version="1.1" xmlns:xlink="http://www.w3.org/1999/xlink" xmlns:svgjs="http://svgjs.com/svgjs" width="1920" height="750" preserveAspectRatio="none" viewBox="0 0 1920 750"><g mask="url(&quot;#SvgjsMask1016&quot;)" fill="none"><rect width="1920" height="750" x="0" y="0" fill="rgba(37, 46, 55, 1)"></rect><path d="M-54.24 552.29L-54.24 552.29" stroke="#132e65" stroke-width="1.5"></path><path d="M-54.24 552.29L39.09 540.4" stroke="#132e65" stroke-width="1.5"></path><path d="M-54.24 552.29L-51.79 652.45" stroke="#132e65" stroke-width="1.5"></path><path d="M-54.24 552.29L73.58 674.5" stroke="#132e65" stroke-width="1.5"></path><path d="M-54.24 552.29L202.37 652.28" stroke="#132e65" stroke-width="1.5"></path><path d="M-51.79 652.45L-51.79 652.45" stroke="#132e65" stroke-width="1.5"></path><path d="M39.09 540.4L39.09 540.4" stroke="#132e65" stroke-width="1.5"></path><path d="M39.09 540.4L73.58 674.5" stroke="#132e65" stroke-width="1.5"></path><path d="M39.09 540.4L-51.79 652.45" stroke="#132e65" stroke-width="1.5"></path><path d="M39.09 540.4L202.37 652.28" stroke="#132e65" stroke-width="1.5"></path><path d="M39.09 540.4L244.26 551.93" stroke="#132e65" stroke-width="1.5"></path><path d="M39.09 540.4L43.43 845.67" stroke="#132e65" stroke-width="1.5"></path><path d="M73.58 674.5L73.58 674.5" stroke="#132e65" stroke-width="1.5"></path><path d="M73.58 674.5L-51.79 652.45" stroke="#132e65" stroke-width="1.5"></path><path d="M73.58 674.5L202.37 652.28" stroke="#132e65" stroke-width="1.5"></path><path d="M43.43 845.67L43.43 845.67" stroke="#132e65" stroke-width="1.5"></path><path d="M43.43 845.67L207.46 829.6" stroke="#132e65" stroke-width="1.5"></path><path d="M43.43 845.67L73.58 674.5" stroke="#132e65" stroke-width="1.5"></path><path d="M43.43 845.67L-51.79 652.45" stroke="#132e65" stroke-width="1.5"></path><path d="M43.43 845.67L202.37 652.28" stroke="#132e65" stroke-width="1.5"></path><path d="M43.43 845.67L-54.24 552.29" stroke="#132e65" stroke-width="1.5"></path><path d="M244.26 551.93L244.26 551.93" stroke="#132e65" stroke-width="1.5"></path><path d="M244.26 551.93L202.37 652.28" stroke="#132e65" stroke-width="1.5"></path><path d="M244.26 551.93L402.92 516.16" stroke="#132e65" stroke-width="1.5"></path><path d="M244.26 551.93L401.57 687.11" stroke="#132e65" stroke-width="1.5"></path><path d="M202.37 652.28L202.37 652.28" stroke="#132e65" stroke-width="1.5"></path><path d="M207.46 829.6L207.46 829.6" stroke="#132e65" stroke-width="1.5"></path><path d="M207.46 829.6L202.37 652.28" stroke="#132e65" stroke-width="1.5"></path><path d="M402.92 516.16L402.92 516.16" stroke="#132e65" stroke-width="1.5"></path><path d="M402.92 516.16L556.29 545.2" stroke="#132e65" stroke-width="1.5"></path><path d="M402.92 516.16L401.57 687.11" stroke="#132e65" stroke-width="1.5"></path><path d="M401.57 687.11L401.57 687.11" stroke="#132e65" stroke-width="1.5"></path><path d="M401.57 687.11L489.44 679.62" stroke="#132e65" stroke-width="1.5"></path><path d="M401.57 687.11L393.52 799.53" stroke="#132e65" stroke-width="1.5"></path><path d="M393.52 799.53L393.52 799.53" stroke="#132e65" stroke-width="1.5"></path><path d="M393.52 799.53L533.95 802.13" stroke="#132e65" stroke-width="1.5"></path><path d="M393.52 799.53L489.44 679.62" stroke="#132e65" stroke-width="1.5"></path><path d="M556.29 545.2L556.29 545.2" stroke="#132e65" stroke-width="1.5"></path><path d="M556.29 545.2L702.94 514.03" stroke="#132e65" stroke-width="1.5"></path><path d="M556.29 545.2L489.44 679.62" stroke="#132e65" stroke-width="1.5"></path><path d="M489.44 679.62L489.44 679.62" stroke="#132e65" stroke-width="1.5"></path><path d="M489.44 679.62L533.95 802.13" stroke="#132e65" stroke-width="1.5"></path><path d="M533.95 802.13L533.95 802.13" stroke="#132e65" stroke-width="1.5"></path><path d="M533.95 802.13L645.05 852.74" stroke="#132e65" stroke-width="1.5"></path><path d="M702.94 514.03L702.94 514.03" stroke="#132e65" stroke-width="1.5"></path><path d="M702.94 514.03L826.45 532.14" stroke="#132e65" stroke-width="1.5"></path><path d="M702.94 514.03L674.26 650.29" stroke="#132e65" stroke-width="1.5"></path><path d="M702.94 514.03L793.8 370.55" stroke="#132e65" stroke-width="1.5"></path><path d="M702.94 514.03L827.3 659.63" stroke="#132e65" stroke-width="1.5"></path><path d="M702.94 514.03L950.81 487.59" stroke="#132e65" stroke-width="1.5"></path><path d="M674.26 650.29L674.26 650.29" stroke="#132e65" stroke-width="1.5"></path><path d="M674.26 650.29L827.3 659.63" stroke="#132e65" stroke-width="1.5"></path><path d="M674.26 650.29L556.29 545.2" stroke="#132e65" stroke-width="1.5"></path><path d="M645.05 852.74L645.05 852.74" stroke="#132e65" stroke-width="1.5"></path><path d="M645.05 852.74L845.8 830.56" stroke="#132e65" stroke-width="1.5"></path><path d="M645.05 852.74L674.26 650.29" stroke="#132e65" stroke-width="1.5"></path><path d="M645.05 852.74L489.44 679.62" stroke="#132e65" stroke-width="1.5"></path><path d="M645.05 852.74L393.52 799.53" stroke="#132e65" stroke-width="1.5"></path><path d="M793.8 370.55L793.8 370.55" stroke="#132e65" stroke-width="1.5"></path><path d="M793.8 370.55L826.45 532.14" stroke="#132e65" stroke-width="1.5"></path><path d="M793.8 370.55L966.41 383.28" stroke="#132e65" stroke-width="1.5"></path><path d="M793.8 370.55L950.81 487.59" stroke="#132e65" stroke-width="1.5"></path><path d="M793.8 370.55L827.3 659.63" stroke="#132e65" stroke-width="1.5"></path><path d="M826.45 532.14L826.45 532.14" stroke="#132e65" stroke-width="1.5"></path><path d="M826.45 532.14L827.3 659.63" stroke="#132e65" stroke-width="1.5"></path><path d="M826.45 532.14L950.81 487.59" stroke="#132e65" stroke-width="1.5"></path><path d="M826.45 532.14L674.26 650.29" stroke="#132e65" stroke-width="1.5"></path><path d="M827.3 659.63L827.3 659.63" stroke="#132e65" stroke-width="1.5"></path><path d="M827.3 659.63L994.45 652.72" stroke="#132e65" stroke-width="1.5"></path><path d="M827.3 659.63L845.8 830.56" stroke="#132e65" stroke-width="1.5"></path><path d="M845.8 830.56L845.8 830.56" stroke="#132e65" stroke-width="1.5"></path><path d="M845.8 830.56L1008.31 807.56" stroke="#132e65" stroke-width="1.5"></path><path d="M966.41 383.28L966.41 383.28" stroke="#132e65" stroke-width="1.5"></path><path d="M966.41 383.28L950.81 487.59" stroke="#132e65" stroke-width="1.5"></path><path d="M966.41 383.28L1111.37 408.99" stroke="#132e65" stroke-width="1.5"></path><path d="M966.41 383.28L1125.32 507.29" stroke="#132e65" stroke-width="1.5"></path><path d="M966.41 383.28L826.45 532.14" stroke="#132e65" stroke-width="1.5"></path><path d="M950.81 487.59L950.81 487.59" stroke="#132e65" stroke-width="1.5"></path><path d="M994.45 652.72L994.45 652.72" stroke="#132e65" stroke-width="1.5"></path><path d="M994.45 652.72L1132.87 696.55" stroke="#132e65" stroke-width="1.5"></path><path d="M994.45 652.72L1008.31 807.56" stroke="#132e65" stroke-width="1.5"></path><path d="M994.45 652.72L950.81 487.59" stroke="#132e65" stroke-width="1.5"></path><path d="M1008.31 807.56L1008.31 807.56" stroke="#132e65" stroke-width="1.5"></path><path d="M1008.31 807.56L1088.74 802.45" stroke="#132e65" stroke-width="1.5"></path><path d="M1153.4 202.46L1153.4 202.46" stroke="#132e65" stroke-width="1.5"></path><path d="M1153.4 202.46L1273.32 226.33" stroke="#132e65" stroke-width="1.5"></path><path d="M1153.4 202.46L1255.18 45.66" stroke="#132e65" stroke-width="1.5"></path><path d="M1153.4 202.46L1111.37 408.99" stroke="#132e65" stroke-width="1.5"></path><path d="M1153.4 202.46L1269.79 409.52" stroke="#132e65" stroke-width="1.5"></path><path d="M1153.4 202.46L966.41 383.28" stroke="#132e65" stroke-width="1.5"></path><path d="M1153.4 202.46L1400.81 96.32" stroke="#132e65" stroke-width="1.5"></path><path d="M1111.37 408.99L1111.37 408.99" stroke="#132e65" stroke-width="1.5"></path><path d="M1111.37 408.99L1125.32 507.29" stroke="#132e65" stroke-width="1.5"></path><path d="M1111.37 408.99L1269.79 409.52" stroke="#132e65" stroke-width="1.5"></path><path d="M1125.32 507.29L1125.32 507.29" stroke="#132e65" stroke-width="1.5"></path><path d="M1125.32 507.29L1271.99 497.73" stroke="#132e65" stroke-width="1.5"></path><path d="M1125.32 507.29L1269.79 409.52" stroke="#132e65" stroke-width="1.5"></path><path d="M1125.32 507.29L950.81 487.59" stroke="#132e65" stroke-width="1.5"></path><path d="M1132.87 696.55L1132.87 696.55" stroke="#132e65" stroke-width="1.5"></path><path d="M1132.87 696.55L1088.74 802.45" stroke="#132e65" stroke-width="1.5"></path><path d="M1132.87 696.55L1251.79 681.97" stroke="#132e65" stroke-width="1.5"></path><path d="M1132.87 696.55L1008.31 807.56" stroke="#132e65" stroke-width="1.5"></path><path d="M1088.74 802.45L1088.74 802.45" stroke="#132e65" stroke-width="1.5"></path><path d="M1088.74 802.45L994.45 652.72" stroke="#132e65" stroke-width="1.5"></path><path d="M1088.74 802.45L1251.79 681.97" stroke="#132e65" stroke-width="1.5"></path><path d="M1088.74 802.45L845.8 830.56" stroke="#132e65" stroke-width="1.5"></path><path d="M1088.74 802.45L1125.32 507.29" stroke="#132e65" stroke-width="1.5"></path><path d="M1289.02 -40.46L1289.02 -40.46" stroke="#132e65" stroke-width="1.5"></path><path d="M1289.02 -40.46L1255.18 45.66" stroke="#132e65" stroke-width="1.5"></path><path d="M1289.02 -40.46L1401.14 -75.5" stroke="#132e65" stroke-width="1.5"></path><path d="M1289.02 -40.46L1400.81 96.32" stroke="#132e65" stroke-width="1.5"></path><path d="M1289.02 -40.46L1273.32 226.33" stroke="#132e65" stroke-width="1.5"></path><path d="M1289.02 -40.46L1153.4 202.46" stroke="#132e65" stroke-width="1.5"></path><path d="M1289.02 -40.46L1588.36 51.76" stroke="#132e65" stroke-width="1.5"></path><path d="M1255.18 45.66L1255.18 45.66" stroke="#132e65" stroke-width="1.5"></path><path d="M1255.18 45.66L1400.81 96.32" stroke="#132e65" stroke-width="1.5"></path><path d="M1255.18 45.66L1273.32 226.33" stroke="#132e65" stroke-width="1.5"></path><path d="M1273.32 226.33L1273.32 226.33" stroke="#132e65" stroke-width="1.5"></path><path d="M1273.32 226.33L1435.44 242.44" stroke="#132e65" stroke-width="1.5"></path><path d="M1269.79 409.52L1269.79 409.52" stroke="#132e65" stroke-width="1.5"></path><path d="M1269.79 409.52L1271.99 497.73" stroke="#132e65" stroke-width="1.5"></path><path d="M1269.79 409.52L1408.36 351.39" stroke="#132e65" stroke-width="1.5"></path><path d="M1271.99 497.73L1271.99 497.73" stroke="#132e65" stroke-width="1.5"></path><path d="M1271.99 497.73L1410.32 534.59" stroke="#132e65" stroke-width="1.5"></path><path d="M1271.99 497.73L1111.37 408.99" stroke="#132e65" stroke-width="1.5"></path><path d="M1251.79 681.97L1251.79 681.97" stroke="#132e65" stroke-width="1.5"></path><path d="M1251.79 681.97L1271.99 497.73" stroke="#132e65" stroke-width="1.5"></path><path d="M1401.14 -75.5L1401.14 -75.5" stroke="#132e65" stroke-width="1.5"></path><path d="M1401.14 -75.5L1400.81 96.32" stroke="#132e65" stroke-width="1.5"></path><path d="M1401.14 -75.5L1255.18 45.66" stroke="#132e65" stroke-width="1.5"></path><path d="M1401.14 -75.5L1607.43 -49.16" stroke="#132e65" stroke-width="1.5"></path><path d="M1401.14 -75.5L1588.36 51.76" stroke="#132e65" stroke-width="1.5"></path><path d="M1401.14 -75.5L1689.19 -53.93" stroke="#132e65" stroke-width="1.5"></path><path d="M1400.81 96.32L1400.81 96.32" stroke="#132e65" stroke-width="1.5"></path><path d="M1400.81 96.32L1435.44 242.44" stroke="#132e65" stroke-width="1.5"></path><path d="M1435.44 242.44L1435.44 242.44" stroke="#132e65" stroke-width="1.5"></path><path d="M1435.44 242.44L1408.36 351.39" stroke="#132e65" stroke-width="1.5"></path><path d="M1435.44 242.44L1567.47 191.32" stroke="#132e65" stroke-width="1.5"></path><path d="M1435.44 242.44L1597.69 386.74" stroke="#132e65" stroke-width="1.5"></path><path d="M1435.44 242.44L1269.79 409.52" stroke="#132e65" stroke-width="1.5"></path><path d="M1408.36 351.39L1408.36 351.39" stroke="#132e65" stroke-width="1.5"></path><path d="M1408.36 351.39L1410.32 534.59" stroke="#132e65" stroke-width="1.5"></path><path d="M1408.36 351.39L1273.32 226.33" stroke="#132e65" stroke-width="1.5"></path><path d="M1408.36 351.39L1597.69 386.74" stroke="#132e65" stroke-width="1.5"></path><path d="M1408.36 351.39L1271.99 497.73" stroke="#132e65" stroke-width="1.5"></path><path d="M1410.32 534.59L1410.32 534.59" stroke="#132e65" stroke-width="1.5"></path><path d="M1410.32 534.59L1551.53 524.24" stroke="#132e65" stroke-width="1.5"></path><path d="M1410.32 534.59L1438.6 680.4" stroke="#132e65" stroke-width="1.5"></path><path d="M1410.32 534.59L1269.79 409.52" stroke="#132e65" stroke-width="1.5"></path><path d="M1438.6 680.4L1438.6 680.4" stroke="#132e65" stroke-width="1.5"></path><path d="M1438.6 680.4L1457.73 824.81" stroke="#132e65" stroke-width="1.5"></path><path d="M1438.6 680.4L1251.79 681.97" stroke="#132e65" stroke-width="1.5"></path><path d="M1457.73 824.81L1457.73 824.81" stroke="#132e65" stroke-width="1.5"></path><path d="M1457.73 824.81L1610.65 847.35" stroke="#132e65" stroke-width="1.5"></path><path d="M1457.73 824.81L1251.79 681.97" stroke="#132e65" stroke-width="1.5"></path><path d="M1457.73 824.81L1749.17 854.37" stroke="#132e65" stroke-width="1.5"></path><path d="M1607.43 -49.16L1607.43 -49.16" stroke="#132e65" stroke-width="1.5"></path><path d="M1607.43 -49.16L1689.19 -53.93" stroke="#132e65" stroke-width="1.5"></path><path d="M1607.43 -49.16L1588.36 51.76" stroke="#132e65" stroke-width="1.5"></path><path d="M1607.43 -49.16L1710.72 40.83" stroke="#132e65" stroke-width="1.5"></path><path d="M1607.43 -49.16L1567.47 191.32" stroke="#132e65" stroke-width="1.5"></path><path d="M1588.36 51.76L1588.36 51.76" stroke="#132e65" stroke-width="1.5"></path><path d="M1588.36 51.76L1710.72 40.83" stroke="#132e65" stroke-width="1.5"></path><path d="M1588.36 51.76L1567.47 191.32" stroke="#132e65" stroke-width="1.5"></path><path d="M1588.36 51.76L1689.19 -53.93" stroke="#132e65" stroke-width="1.5"></path><path d="M1567.47 191.32L1567.47 191.32" stroke="#132e65" stroke-width="1.5"></path><path d="M1567.47 191.32L1749.74 194.44" stroke="#132e65" stroke-width="1.5"></path><path d="M1567.47 191.32L1400.81 96.32" stroke="#132e65" stroke-width="1.5"></path><path d="M1597.69 386.74L1597.69 386.74" stroke="#132e65" stroke-width="1.5"></path><path d="M1597.69 386.74L1690.74 353.2" stroke="#132e65" stroke-width="1.5"></path><path d="M1597.69 386.74L1551.53 524.24" stroke="#132e65" stroke-width="1.5"></path><path d="M1551.53 524.24L1551.53 524.24" stroke="#132e65" stroke-width="1.5"></path><path d="M1551.53 524.24L1438.6 680.4" stroke="#132e65" stroke-width="1.5"></path><path d="M1610.65 847.35L1610.65 847.35" stroke="#132e65" stroke-width="1.5"></path><path d="M1610.65 847.35L1749.17 854.37" stroke="#132e65" stroke-width="1.5"></path><path d="M1610.65 847.35L1735.2 658.13" stroke="#132e65" stroke-width="1.5"></path><path d="M1689.19 -53.93L1689.19 -53.93" stroke="#132e65" stroke-width="1.5"></path><path d="M1689.19 -53.93L1710.72 40.83" stroke="#132e65" stroke-width="1.5"></path><path d="M1689.19 -53.93L1848.01 -93.99" stroke="#132e65" stroke-width="1.5"></path><path d="M1689.19 -53.93L1841.3 105.68" stroke="#132e65" stroke-width="1.5"></path><path d="M1710.72 40.83L1710.72 40.83" stroke="#132e65" stroke-width="1.5"></path><path d="M1710.72 40.83L1841.3 105.68" stroke="#132e65" stroke-width="1.5"></path><path d="M1710.72 40.83L1749.74 194.44" stroke="#132e65" stroke-width="1.5"></path><path d="M1749.74 194.44L1749.74 194.44" stroke="#132e65" stroke-width="1.5"></path><path d="M1749.74 194.44L1852.61 201.45" stroke="#132e65" stroke-width="1.5"></path><path d="M1749.74 194.44L1841.3 105.68" stroke="#132e65" stroke-width="1.5"></path><path d="M1749.74 194.44L1690.74 353.2" stroke="#132e65" stroke-width="1.5"></path><path d="M1690.74 353.2L1690.74 353.2" stroke="#132e65" stroke-width="1.5"></path><path d="M1690.74 353.2L1851.4 410.98" stroke="#132e65" stroke-width="1.5"></path><path d="M1690.74 353.2L1756.17 545.67" stroke="#132e65" stroke-width="1.5"></path><path d="M1690.74 353.2L1567.47 191.32" stroke="#132e65" stroke-width="1.5"></path><path d="M1756.17 545.67L1756.17 545.67" stroke="#132e65" stroke-width="1.5"></path><path d="M1756.17 545.67L1869.43 541.45" stroke="#132e65" stroke-width="1.5"></path><path d="M1756.17 545.67L1735.2 658.13" stroke="#132e65" stroke-width="1.5"></path><path d="M1756.17 545.67L1851.4 410.98" stroke="#132e65" stroke-width="1.5"></path><path d="M1735.2 658.13L1735.2 658.13" stroke="#132e65" stroke-width="1.5"></path><path d="M1735.2 658.13L1893.71 703.06" stroke="#132e65" stroke-width="1.5"></path><path d="M1735.2 658.13L1869.43 541.45" stroke="#132e65" stroke-width="1.5"></path><path d="M1735.2 658.13L1749.17 854.37" stroke="#132e65" stroke-width="1.5"></path><path d="M1735.2 658.13L1895.82 810.86" stroke="#132e65" stroke-width="1.5"></path><path d="M1749.17 854.37L1749.17 854.37" stroke="#132e65" stroke-width="1.5"></path><path d="M1749.17 854.37L1895.82 810.86" stroke="#132e65" stroke-width="1.5"></path><path d="M1749.17 854.37L1893.71 703.06" stroke="#132e65" stroke-width="1.5"></path><path d="M1848.01 -93.99L1848.01 -93.99" stroke="#132e65" stroke-width="1.5"></path><path d="M1848.01 -93.99L1710.72 40.83" stroke="#132e65" stroke-width="1.5"></path><path d="M1848.01 -93.99L1841.3 105.68" stroke="#132e65" stroke-width="1.5"></path><path d="M1848.01 -93.99L2057.31 -57.78" stroke="#132e65" stroke-width="1.5"></path><path d="M1848.01 -93.99L2012.62 74.84" stroke="#132e65" stroke-width="1.5"></path><path d="M1848.01 -93.99L1607.43 -49.16" stroke="#132e65" stroke-width="1.5"></path><path d="M1841.3 105.68L1841.3 105.68" stroke="#132e65" stroke-width="1.5"></path><path d="M1841.3 105.68L1852.61 201.45" stroke="#132e65" stroke-width="1.5"></path><path d="M1841.3 105.68L2012.62 74.84" stroke="#132e65" stroke-width="1.5"></path><path d="M1841.3 105.68L2009.73 194.69" stroke="#132e65" stroke-width="1.5"></path><path d="M1852.61 201.45L1852.61 201.45" stroke="#132e65" stroke-width="1.5"></path><path d="M1852.61 201.45L2009.73 194.69" stroke="#132e65" stroke-width="1.5"></path><path d="M1852.61 201.45L2012.62 74.84" stroke="#132e65" stroke-width="1.5"></path><path d="M1851.4 410.98L1851.4 410.98" stroke="#132e65" stroke-width="1.5"></path><path d="M1851.4 410.98L1869.43 541.45" stroke="#132e65" stroke-width="1.5"></path><path d="M1869.43 541.45L1869.43 541.45" stroke="#132e65" stroke-width="1.5"></path><path d="M1869.43 541.45L1893.71 703.06" stroke="#132e65" stroke-width="1.5"></path><path d="M1893.71 703.06L1893.71 703.06" stroke="#132e65" stroke-width="1.5"></path><path d="M1893.71 703.06L1895.82 810.86" stroke="#132e65" stroke-width="1.5"></path><path d="M1893.71 703.06L2028.75 642.03" stroke="#132e65" stroke-width="1.5"></path><path d="M1895.82 810.86L1895.82 810.86" stroke="#132e65" stroke-width="1.5"></path><path d="M1895.82 810.86L2028.75 642.03" stroke="#132e65" stroke-width="1.5"></path><path d="M2057.31 -57.78L2057.31 -57.78" stroke="#132e65" stroke-width="1.5"></path><path d="M2057.31 -57.78L2012.62 74.84" stroke="#132e65" stroke-width="1.5"></path><path d="M2057.31 -57.78L2009.73 194.69" stroke="#132e65" stroke-width="1.5"></path><path d="M2012.62 74.84L2012.62 74.84" stroke="#132e65" stroke-width="1.5"></path><path d="M2012.62 74.84L2009.73 194.69" stroke="#132e65" stroke-width="1.5"></path><path d="M2009.73 194.69L2009.73 194.69" stroke="#132e65" stroke-width="1.5"></path><path d="M2009.73 194.69L2057.24 377.31" stroke="#132e65" stroke-width="1.5"></path><path d="M2057.24 377.31L2057.24 377.31" stroke="#132e65" stroke-width="1.5"></path><path d="M2057.24 377.31L2047.92 553.25" stroke="#132e65" stroke-width="1.5"></path><path d="M2057.24 377.31L1851.4 410.98" stroke="#132e65" stroke-width="1.5"></path><path d="M2047.92 553.25L2047.92 553.25" stroke="#132e65" stroke-width="1.5"></path><path d="M2047.92 553.25L2028.75 642.03" stroke="#132e65" stroke-width="1.5"></path><path d="M2047.92 553.25L1869.43 541.45" stroke="#132e65" stroke-width="1.5"></path><path d="M2047.92 553.25L1893.71 703.06" stroke="#132e65" stroke-width="1.5"></path><path d="M2047.92 553.25L1851.4 410.98" stroke="#132e65" stroke-width="1.5"></path><path d="M2028.75 642.03L2028.75 642.03" stroke="#132e65" stroke-width="1.5"></path><circle r="5" cx="-54.24" cy="552.29" fill="#132e65"></circle><circle r="5" cx="-51.79" cy="652.45" fill="#132e65"></circle><circle r="5" cx="39.09" cy="540.4" fill="#132e65"></circle><circle r="5" cx="73.58" cy="674.5" fill="#132e65"></circle><circle r="5" cx="43.43" cy="845.67" fill="#132e65"></circle><circle r="5" cx="244.26" cy="551.93" fill="#132e65"></circle><circle r="5" cx="202.37" cy="652.28" fill="#132e65"></circle><circle r="5" cx="207.46" cy="829.6" fill="#132e65"></circle><circle r="5" cx="402.92" cy="516.16" fill="#132e65"></circle><circle r="5" cx="401.57" cy="687.11" fill="#132e65"></circle><circle r="5" cx="393.52" cy="799.53" fill="#132e65"></circle><circle r="5" cx="556.29" cy="545.2" fill="#132e65"></circle><circle r="5" cx="489.44" cy="679.62" fill="#132e65"></circle><circle r="5" cx="533.95" cy="802.13" fill="#132e65"></circle><circle r="5" cx="702.94" cy="514.03" fill="#132e65"></circle><circle r="5" cx="674.26" cy="650.29" fill="#132e65"></circle><circle r="5" cx="645.05" cy="852.74" fill="#132e65"></circle><circle r="5" cx="793.8" cy="370.55" fill="#132e65"></circle><circle r="5" cx="826.45" cy="532.14" fill="#132e65"></circle><circle r="5" cx="827.3" cy="659.63" fill="#132e65"></circle><circle r="5" cx="845.8" cy="830.56" fill="#132e65"></circle><circle r="5" cx="966.41" cy="383.28" fill="#132e65"></circle><circle r="5" cx="950.81" cy="487.59" fill="#132e65"></circle><circle r="5" cx="994.45" cy="652.72" fill="#132e65"></circle><circle r="5" cx="1008.31" cy="807.56" fill="#132e65"></circle><circle r="5" cx="1153.4" cy="202.46" fill="#132e65"></circle><circle r="5" cx="1111.37" cy="408.99" fill="#132e65"></circle><circle r="5" cx="1125.32" cy="507.29" fill="#132e65"></circle><circle r="5" cx="1132.87" cy="696.55" fill="#132e65"></circle><circle r="5" cx="1088.74" cy="802.45" fill="#132e65"></circle><circle r="5" cx="1289.02" cy="-40.46" fill="#132e65"></circle><circle r="5" cx="1255.18" cy="45.66" fill="#132e65"></circle><circle r="5" cx="1273.32" cy="226.33" fill="#132e65"></circle><circle r="5" cx="1269.79" cy="409.52" fill="#132e65"></circle><circle r="5" cx="1271.99" cy="497.73" fill="#132e65"></circle><circle r="5" cx="1251.79" cy="681.97" fill="#132e65"></circle><circle r="5" cx="1401.14" cy="-75.5" fill="#132e65"></circle><circle r="5" cx="1400.81" cy="96.32" fill="#132e65"></circle><circle r="5" cx="1435.44" cy="242.44" fill="#132e65"></circle><circle r="5" cx="1408.36" cy="351.39" fill="#132e65"></circle><circle r="5" cx="1410.32" cy="534.59" fill="#132e65"></circle><circle r="5" cx="1438.6" cy="680.4" fill="#132e65"></circle><circle r="5" cx="1457.73" cy="824.81" fill="#132e65"></circle><circle r="5" cx="1607.43" cy="-49.16" fill="#132e65"></circle><circle r="5" cx="1588.36" cy="51.76" fill="#132e65"></circle><circle r="5" cx="1567.47" cy="191.32" fill="#132e65"></circle><circle r="5" cx="1597.69" cy="386.74" fill="#132e65"></circle><circle r="5" cx="1551.53" cy="524.24" fill="#132e65"></circle><circle r="5" cx="1610.65" cy="847.35" fill="#132e65"></circle><circle r="5" cx="1689.19" cy="-53.93" fill="#132e65"></circle><circle r="5" cx="1710.72" cy="40.83" fill="#132e65"></circle><circle r="5" cx="1749.74" cy="194.44" fill="#132e65"></circle><circle r="5" cx="1690.74" cy="353.2" fill="#132e65"></circle><circle r="5" cx="1756.17" cy="545.67" fill="#132e65"></circle><circle r="5" cx="1735.2" cy="658.13" fill="#132e65"></circle><circle r="5" cx="1749.17" cy="854.37" fill="#132e65"></circle><circle r="5" cx="1848.01" cy="-93.99" fill="#132e65"></circle><circle r="5" cx="1841.3" cy="105.68" fill="#132e65"></circle><circle r="5" cx="1852.61" cy="201.45" fill="#132e65"></circle><circle r="5" cx="1851.4" cy="410.98" fill="#132e65"></circle><circle r="5" cx="1869.43" cy="541.45" fill="#132e65"></circle><circle r="5" cx="1893.71" cy="703.06" fill="#132e65"></circle><circle r="5" cx="1895.82" cy="810.86" fill="#132e65"></circle><circle r="5" cx="2057.31" cy="-57.78" fill="#132e65"></circle><circle r="5" cx="2012.62" cy="74.84" fill="#132e65"></circle><circle r="5" cx="2009.73" cy="194.69" fill="#132e65"></circle><circle r="5" cx="2057.24" cy="377.31" fill="#132e65"></circle><circle r="5" cx="2047.92" cy="553.25" fill="#132e65"></circle><circle r="5" cx="2028.75" cy="642.03" fill="#132e65"></circle><path d="M344.1 658.66L344.1 658.66" stroke="hsl(228.5, 77.2%, 51.5%)" stroke-width="1.5"></path><path d="M344.1 658.66L243.59 650.3" stroke="hsl(228.5, 77.2%, 51.5%)" stroke-width="1.5"></path><path d="M344.1 658.66L364.96 799.76" stroke="hsl(228.5, 77.2%, 51.5%)" stroke-width="1.5"></path><path d="M344.1 658.66L518.91 667.41" stroke="hsl(228.5, 77.2%, 51.5%)" stroke-width="1.5"></path><path d="M817.12 843.74L817.12 843.74" stroke="hsl(228.5, 77.2%, 51.5%)" stroke-width="1.5"></path><path d="M817.12 843.74L701.37 797.46" stroke="hsl(228.5, 77.2%, 51.5%)" stroke-width="1.5"></path><path d="M817.12 843.74L957.08 854.59" stroke="hsl(228.5, 77.2%, 51.5%)" stroke-width="1.5"></path><path d="M817.12 843.74L810.45 678.7" stroke="hsl(228.5, 77.2%, 51.5%)" stroke-width="1.5"></path><path d="M817.12 843.74L649.14 707.82" stroke="hsl(228.5, 77.2%, 51.5%)" stroke-width="1.5"></path><path d="M952.06 492.4L952.06 492.4" stroke="hsl(228.5, 77.2%, 51.5%)" stroke-width="1.5"></path><path d="M952.06 492.4L808.63 517.41" stroke="hsl(228.5, 77.2%, 51.5%)" stroke-width="1.5"></path><path d="M952.06 492.4L968.14 658.26" stroke="hsl(228.5, 77.2%, 51.5%)" stroke-width="1.5"></path><path d="M952.06 492.4L1118.01 507.59" stroke="hsl(228.5, 77.2%, 51.5%)" stroke-width="1.5"></path><path d="M1694.6 -73.26L1694.6 -73.26" stroke="hsl(228.5, 77.2%, 51.5%)" stroke-width="1.5"></path><path d="M1694.6 -73.26L1558.64 -93.59" stroke="hsl(228.5, 77.2%, 51.5%)" stroke-width="1.5"></path><path d="M1694.6 -73.26L1568.82 83" stroke="hsl(228.5, 77.2%, 51.5%)" stroke-width="1.5"></path><path d="M1694.6 -73.26L1718.6 252.37" stroke="hsl(228.5, 77.2%, 51.5%)" stroke-width="1.5"></path><path d="M1702.66 339.67L1702.66 339.67" stroke="hsl(228.5, 77.2%, 51.5%)" stroke-width="1.5"></path><path d="M1702.66 339.67L1718.6 252.37" stroke="hsl(228.5, 77.2%, 51.5%)" stroke-width="1.5"></path><path d="M1702.66 339.67L1589.66 389.76" stroke="hsl(228.5, 77.2%, 51.5%)" stroke-width="1.5"></path><path d="M1702.66 339.67L1847.35 375.33" stroke="hsl(228.5, 77.2%, 51.5%)" stroke-width="1.5"></path><path d="M1702.66 339.67L1567.69 239.21" stroke="hsl(228.5, 77.2%, 51.5%)" stroke-width="1.5"></path><path d="M1702.66 339.67L1751.07 506.68" stroke="hsl(228.5, 77.2%, 51.5%)" stroke-width="1.5"></path><path d="M1702.66 339.67L1839.45 494.89" stroke="hsl(228.5, 77.2%, 51.5%)" stroke-width="1.5"></path><path d="M1751.07 506.68L1751.07 506.68" stroke="hsl(228.5, 77.2%, 51.5%)" stroke-width="1.5"></path><path d="M1751.07 506.68L1839.45 494.89" stroke="hsl(228.5, 77.2%, 51.5%)" stroke-width="1.5"></path><path d="M1751.07 506.68L1847.35 375.33" stroke="hsl(228.5, 77.2%, 51.5%)" stroke-width="1.5"></path><path d="M1751.07 506.68L1717.93 674.06" stroke="hsl(228.5, 77.2%, 51.5%)" stroke-width="1.5"></path><path d="M1751.07 506.68L1589.66 389.76" stroke="hsl(228.5, 77.2%, 51.5%)" stroke-width="1.5"></path><path d="M1751.07 506.68L1555.76 551.62" stroke="hsl(228.5, 77.2%, 51.5%)" stroke-width="1.5"></path><path d="M2049.44 551.27L2049.44 551.27" stroke="hsl(228.5, 77.2%, 51.5%)" stroke-width="1.5"></path><path d="M2049.44 551.27L1996 352.43" stroke="hsl(228.5, 77.2%, 51.5%)" stroke-width="1.5"></path><path d="M2049.44 551.27L1887.48 689.47" stroke="hsl(228.5, 77.2%, 51.5%)" stroke-width="1.5"></path><path d="M2049.44 551.27L1839.45 494.89" stroke="hsl(228.5, 77.2%, 51.5%)" stroke-width="1.5"></path><path d="M-41.66 658.9L-41.66 658.9" stroke="hsl(228.5, 77.2%, 51.5%)" stroke-width="1.5"></path><path d="M-41.66 658.9L41.18 646.35" stroke="hsl(228.5, 77.2%, 51.5%)" stroke-width="1.5"></path><path d="M-41.66 658.9L-56.99 809.66" stroke="hsl(228.5, 77.2%, 51.5%)" stroke-width="1.5"></path><path d="M-56.99 809.66L-56.99 809.66" stroke="hsl(228.5, 77.2%, 51.5%)" stroke-width="1.5"></path><path d="M-56.99 809.66L62.7 797.13" stroke="hsl(228.5, 77.2%, 51.5%)" stroke-width="1.5"></path><path d="M41.18 646.35L41.18 646.35" stroke="hsl(228.5, 77.2%, 51.5%)" stroke-width="1.5"></path><path d="M41.18 646.35L62.7 797.13" stroke="hsl(228.5, 77.2%, 51.5%)" stroke-width="1.5"></path><path d="M41.18 646.35L-56.99 809.66" stroke="hsl(228.5, 77.2%, 51.5%)" stroke-width="1.5"></path><path d="M41.18 646.35L243.59 650.3" stroke="hsl(228.5, 77.2%, 51.5%)" stroke-width="1.5"></path><path d="M41.18 646.35L245.52 803.91" stroke="hsl(228.5, 77.2%, 51.5%)" stroke-width="1.5"></path><path d="M41.18 646.35L344.1 658.66" stroke="hsl(228.5, 77.2%, 51.5%)" stroke-width="1.5"></path><path d="M62.7 797.13L62.7 797.13" stroke="hsl(228.5, 77.2%, 51.5%)" stroke-width="1.5"></path><path d="M243.59 650.3L243.59 650.3" stroke="hsl(228.5, 77.2%, 51.5%)" stroke-width="1.5"></path><path d="M243.59 650.3L245.52 803.91" stroke="hsl(228.5, 77.2%, 51.5%)" stroke-width="1.5"></path><path d="M245.52 803.91L245.52 803.91" stroke="hsl(228.5, 77.2%, 51.5%)" stroke-width="1.5"></path><path d="M245.52 803.91L364.96 799.76" stroke="hsl(228.5, 77.2%, 51.5%)" stroke-width="1.5"></path><path d="M245.52 803.91L344.1 658.66" stroke="hsl(228.5, 77.2%, 51.5%)" stroke-width="1.5"></path><path d="M245.52 803.91L62.7 797.13" stroke="hsl(228.5, 77.2%, 51.5%)" stroke-width="1.5"></path><path d="M245.52 803.91L497.27 850.29" stroke="hsl(228.5, 77.2%, 51.5%)" stroke-width="1.5"></path><path d="M364.96 799.76L364.96 799.76" stroke="hsl(228.5, 77.2%, 51.5%)" stroke-width="1.5"></path><path d="M364.96 799.76L497.27 850.29" stroke="hsl(228.5, 77.2%, 51.5%)" stroke-width="1.5"></path><path d="M364.96 799.76L243.59 650.3" stroke="hsl(228.5, 77.2%, 51.5%)" stroke-width="1.5"></path><path d="M364.96 799.76L518.91 667.41" stroke="hsl(228.5, 77.2%, 51.5%)" stroke-width="1.5"></path><path d="M518.91 667.41L518.91 667.41" stroke="hsl(228.5, 77.2%, 51.5%)" stroke-width="1.5"></path><path d="M518.91 667.41L649.14 707.82" stroke="hsl(228.5, 77.2%, 51.5%)" stroke-width="1.5"></path><path d="M518.91 667.41L497.27 850.29" stroke="hsl(228.5, 77.2%, 51.5%)" stroke-width="1.5"></path><path d="M518.91 667.41L701.37 797.46" stroke="hsl(228.5, 77.2%, 51.5%)" stroke-width="1.5"></path><path d="M518.91 667.41L243.59 650.3" stroke="hsl(228.5, 77.2%, 51.5%)" stroke-width="1.5"></path><path d="M497.27 850.29L497.27 850.29" stroke="hsl(228.5, 77.2%, 51.5%)" stroke-width="1.5"></path><path d="M497.27 850.29L649.14 707.82" stroke="hsl(228.5, 77.2%, 51.5%)" stroke-width="1.5"></path><path d="M497.27 850.29L701.37 797.46" stroke="hsl(228.5, 77.2%, 51.5%)" stroke-width="1.5"></path><path d="M497.27 850.29L344.1 658.66" stroke="hsl(228.5, 77.2%, 51.5%)" stroke-width="1.5"></path><path d="M649.14 707.82L649.14 707.82" stroke="hsl(228.5, 77.2%, 51.5%)" stroke-width="1.5"></path><path d="M649.14 707.82L701.37 797.46" stroke="hsl(228.5, 77.2%, 51.5%)" stroke-width="1.5"></path><path d="M649.14 707.82L810.45 678.7" stroke="hsl(228.5, 77.2%, 51.5%)" stroke-width="1.5"></path><path d="M701.37 797.46L701.37 797.46" stroke="hsl(228.5, 77.2%, 51.5%)" stroke-width="1.5"></path><path d="M808.63 517.41L808.63 517.41" stroke="hsl(228.5, 77.2%, 51.5%)" stroke-width="1.5"></path><path d="M808.63 517.41L810.45 678.7" stroke="hsl(228.5, 77.2%, 51.5%)" stroke-width="1.5"></path><path d="M808.63 517.41L968.14 658.26" stroke="hsl(228.5, 77.2%, 51.5%)" stroke-width="1.5"></path><path d="M810.45 678.7L810.45 678.7" stroke="hsl(228.5, 77.2%, 51.5%)" stroke-width="1.5"></path><path d="M810.45 678.7L968.14 658.26" stroke="hsl(228.5, 77.2%, 51.5%)" stroke-width="1.5"></path><path d="M810.45 678.7L701.37 797.46" stroke="hsl(228.5, 77.2%, 51.5%)" stroke-width="1.5"></path><path d="M968.14 658.26L968.14 658.26" stroke="hsl(228.5, 77.2%, 51.5%)" stroke-width="1.5"></path><path d="M957.08 854.59L957.08 854.59" stroke="hsl(228.5, 77.2%, 51.5%)" stroke-width="1.5"></path><path d="M957.08 854.59L1123.27 797.13" stroke="hsl(228.5, 77.2%, 51.5%)" stroke-width="1.5"></path><path d="M957.08 854.59L968.14 658.26" stroke="hsl(228.5, 77.2%, 51.5%)" stroke-width="1.5"></path><path d="M957.08 854.59L810.45 678.7" stroke="hsl(228.5, 77.2%, 51.5%)" stroke-width="1.5"></path><path d="M1118.01 507.59L1118.01 507.59" stroke="hsl(228.5, 77.2%, 51.5%)" stroke-width="1.5"></path><path d="M1118.01 507.59L1274.21 503.93" stroke="hsl(228.5, 77.2%, 51.5%)" stroke-width="1.5"></path><path d="M1123.27 797.13L1123.27 797.13" stroke="hsl(228.5, 77.2%, 51.5%)" stroke-width="1.5"></path><path d="M1123.27 797.13L1245.49 816.68" stroke="hsl(228.5, 77.2%, 51.5%)" stroke-width="1.5"></path><path d="M1259.63 353.59L1259.63 353.59" stroke="hsl(228.5, 77.2%, 51.5%)" stroke-width="1.5"></path><path d="M1259.63 353.59L1400.67 386.28" stroke="hsl(228.5, 77.2%, 51.5%)" stroke-width="1.5"></path><path d="M1259.63 353.59L1274.21 503.93" stroke="hsl(228.5, 77.2%, 51.5%)" stroke-width="1.5"></path><path d="M1259.63 353.59L1118.01 507.59" stroke="hsl(228.5, 77.2%, 51.5%)" stroke-width="1.5"></path><path d="M1259.63 353.59L1389.54 538.56" stroke="hsl(228.5, 77.2%, 51.5%)" stroke-width="1.5"></path><path d="M1259.63 353.59L1459.52 246.92" stroke="hsl(228.5, 77.2%, 51.5%)" stroke-width="1.5"></path><path d="M1259.63 353.59L1264.66 647.59" stroke="hsl(228.5, 77.2%, 51.5%)" stroke-width="1.5"></path><path d="M1274.21 503.93L1274.21 503.93" stroke="hsl(228.5, 77.2%, 51.5%)" stroke-width="1.5"></path><path d="M1274.21 503.93L1389.54 538.56" stroke="hsl(228.5, 77.2%, 51.5%)" stroke-width="1.5"></path><path d="M1274.21 503.93L1264.66 647.59" stroke="hsl(228.5, 77.2%, 51.5%)" stroke-width="1.5"></path><path d="M1274.21 503.93L1400.67 386.28" stroke="hsl(228.5, 77.2%, 51.5%)" stroke-width="1.5"></path><path d="M1264.66 647.59L1264.66 647.59" stroke="hsl(228.5, 77.2%, 51.5%)" stroke-width="1.5"></path><path d="M1264.66 647.59L1389.54 538.56" stroke="hsl(228.5, 77.2%, 51.5%)" stroke-width="1.5"></path><path d="M1245.49 816.68L1245.49 816.68" stroke="hsl(228.5, 77.2%, 51.5%)" stroke-width="1.5"></path><path d="M1459.52 246.92L1459.52 246.92" stroke="hsl(228.5, 77.2%, 51.5%)" stroke-width="1.5"></path><path d="M1459.52 246.92L1567.69 239.21" stroke="hsl(228.5, 77.2%, 51.5%)" stroke-width="1.5"></path><path d="M1459.52 246.92L1400.67 386.28" stroke="hsl(228.5, 77.2%, 51.5%)" stroke-width="1.5"></path><path d="M1459.52 246.92L1589.66 389.76" stroke="hsl(228.5, 77.2%, 51.5%)" stroke-width="1.5"></path><path d="M1400.67 386.28L1400.67 386.28" stroke="hsl(228.5, 77.2%, 51.5%)" stroke-width="1.5"></path><path d="M1389.54 538.56L1389.54 538.56" stroke="hsl(228.5, 77.2%, 51.5%)" stroke-width="1.5"></path><path d="M1389.54 538.56L1400.67 386.28" stroke="hsl(228.5, 77.2%, 51.5%)" stroke-width="1.5"></path><path d="M1389.54 538.56L1555.76 551.62" stroke="hsl(228.5, 77.2%, 51.5%)" stroke-width="1.5"></path><path d="M1389.54 538.56L1583.87 687.46" stroke="hsl(228.5, 77.2%, 51.5%)" stroke-width="1.5"></path><path d="M1460.25 818.72L1460.25 818.72" stroke="hsl(228.5, 77.2%, 51.5%)" stroke-width="1.5"></path><path d="M1460.25 818.72L1591.61 844.37" stroke="hsl(228.5, 77.2%, 51.5%)" stroke-width="1.5"></path><path d="M1460.25 818.72L1583.87 687.46" stroke="hsl(228.5, 77.2%, 51.5%)" stroke-width="1.5"></path><path d="M1460.25 818.72L1245.49 816.68" stroke="hsl(228.5, 77.2%, 51.5%)" stroke-width="1.5"></path><path d="M1460.25 818.72L1264.66 647.59" stroke="hsl(228.5, 77.2%, 51.5%)" stroke-width="1.5"></path><path d="M1460.25 818.72L1555.76 551.62" stroke="hsl(228.5, 77.2%, 51.5%)" stroke-width="1.5"></path><path d="M1460.25 818.72L1389.54 538.56" stroke="hsl(228.5, 77.2%, 51.5%)" stroke-width="1.5"></path><path d="M1558.64 -93.59L1558.64 -93.59" stroke="hsl(228.5, 77.2%, 51.5%)" stroke-width="1.5"></path><path d="M1558.64 -93.59L1568.82 83" stroke="hsl(228.5, 77.2%, 51.5%)" stroke-width="1.5"></path><path d="M1558.64 -93.59L1567.69 239.21" stroke="hsl(228.5, 77.2%, 51.5%)" stroke-width="1.5"></path><path d="M1568.82 83L1568.82 83" stroke="hsl(228.5, 77.2%, 51.5%)" stroke-width="1.5"></path><path d="M1568.82 83L1567.69 239.21" stroke="hsl(228.5, 77.2%, 51.5%)" stroke-width="1.5"></path><path d="M1568.82 83L1459.52 246.92" stroke="hsl(228.5, 77.2%, 51.5%)" stroke-width="1.5"></path><path d="M1568.82 83L1718.6 252.37" stroke="hsl(228.5, 77.2%, 51.5%)" stroke-width="1.5"></path><path d="M1568.82 83L1702.66 339.67" stroke="hsl(228.5, 77.2%, 51.5%)" stroke-width="1.5"></path><path d="M1567.69 239.21L1567.69 239.21" stroke="hsl(228.5, 77.2%, 51.5%)" stroke-width="1.5"></path><path d="M1589.66 389.76L1589.66 389.76" stroke="hsl(228.5, 77.2%, 51.5%)" stroke-width="1.5"></path><path d="M1589.66 389.76L1567.69 239.21" stroke="hsl(228.5, 77.2%, 51.5%)" stroke-width="1.5"></path><path d="M1555.76 551.62L1555.76 551.62" stroke="hsl(228.5, 77.2%, 51.5%)" stroke-width="1.5"></path><path d="M1555.76 551.62L1583.87 687.46" stroke="hsl(228.5, 77.2%, 51.5%)" stroke-width="1.5"></path><path d="M1555.76 551.62L1589.66 389.76" stroke="hsl(228.5, 77.2%, 51.5%)" stroke-width="1.5"></path><path d="M1555.76 551.62L1717.93 674.06" stroke="hsl(228.5, 77.2%, 51.5%)" stroke-width="1.5"></path><path d="M1583.87 687.46L1583.87 687.46" stroke="hsl(228.5, 77.2%, 51.5%)" stroke-width="1.5"></path><path d="M1583.87 687.46L1717.93 674.06" stroke="hsl(228.5, 77.2%, 51.5%)" stroke-width="1.5"></path><path d="M1591.61 844.37L1591.61 844.37" stroke="hsl(228.5, 77.2%, 51.5%)" stroke-width="1.5"></path><path d="M1591.61 844.37L1583.87 687.46" stroke="hsl(228.5, 77.2%, 51.5%)" stroke-width="1.5"></path><path d="M1591.61 844.37L1717.93 674.06" stroke="hsl(228.5, 77.2%, 51.5%)" stroke-width="1.5"></path><path d="M1591.61 844.37L1874.31 860.55" stroke="hsl(228.5, 77.2%, 51.5%)" stroke-width="1.5"></path><path d="M1591.61 844.37L1555.76 551.62" stroke="hsl(228.5, 77.2%, 51.5%)" stroke-width="1.5"></path><path d="M1718.6 252.37L1718.6 252.37" stroke="hsl(228.5, 77.2%, 51.5%)" stroke-width="1.5"></path><path d="M1718.6 252.37L1567.69 239.21" stroke="hsl(228.5, 77.2%, 51.5%)" stroke-width="1.5"></path><path d="M1718.6 252.37L1847.35 375.33" stroke="hsl(228.5, 77.2%, 51.5%)" stroke-width="1.5"></path><path d="M1718.6 252.37L1589.66 389.76" stroke="hsl(228.5, 77.2%, 51.5%)" stroke-width="1.5"></path><path d="M1718.6 252.37L1905.58 206.72" stroke="hsl(228.5, 77.2%, 51.5%)" stroke-width="1.5"></path><path d="M1717.93 674.06L1717.93 674.06" stroke="hsl(228.5, 77.2%, 51.5%)" stroke-width="1.5"></path><path d="M1717.93 674.06L1887.48 689.47" stroke="hsl(228.5, 77.2%, 51.5%)" stroke-width="1.5"></path><path d="M1905.58 206.72L1905.58 206.72" stroke="hsl(228.5, 77.2%, 51.5%)" stroke-width="1.5"></path><path d="M1905.58 206.72L2046.67 214.72" stroke="hsl(228.5, 77.2%, 51.5%)" stroke-width="1.5"></path><path d="M1905.58 206.72L1996 352.43" stroke="hsl(228.5, 77.2%, 51.5%)" stroke-width="1.5"></path><path d="M1905.58 206.72L2021 71" stroke="hsl(228.5, 77.2%, 51.5%)" stroke-width="1.5"></path><path d="M1905.58 206.72L1847.35 375.33" stroke="hsl(228.5, 77.2%, 51.5%)" stroke-width="1.5"></path><path d="M1847.35 375.33L1847.35 375.33" stroke="hsl(228.5, 77.2%, 51.5%)" stroke-width="1.5"></path><path d="M1847.35 375.33L1839.45 494.89" stroke="hsl(228.5, 77.2%, 51.5%)" stroke-width="1.5"></path><path d="M1839.45 494.89L1839.45 494.89" stroke="hsl(228.5, 77.2%, 51.5%)" stroke-width="1.5"></path><path d="M1839.45 494.89L1887.48 689.47" stroke="hsl(228.5, 77.2%, 51.5%)" stroke-width="1.5"></path><path d="M1839.45 494.89L1996 352.43" stroke="hsl(228.5, 77.2%, 51.5%)" stroke-width="1.5"></path><path d="M1887.48 689.47L1887.48 689.47" stroke="hsl(228.5, 77.2%, 51.5%)" stroke-width="1.5"></path><path d="M1887.48 689.47L1874.31 860.55" stroke="hsl(228.5, 77.2%, 51.5%)" stroke-width="1.5"></path><path d="M1887.48 689.47L2024.17 828.02" stroke="hsl(228.5, 77.2%, 51.5%)" stroke-width="1.5"></path><path d="M1874.31 860.55L1874.31 860.55" stroke="hsl(228.5, 77.2%, 51.5%)" stroke-width="1.5"></path><path d="M1874.31 860.55L2024.17 828.02" stroke="hsl(228.5, 77.2%, 51.5%)" stroke-width="1.5"></path><path d="M1874.31 860.55L1717.93 674.06" stroke="hsl(228.5, 77.2%, 51.5%)" stroke-width="1.5"></path><path d="M2024.13 -60L2024.13 -60" stroke="hsl(228.5, 77.2%, 51.5%)" stroke-width="1.5"></path><path d="M2024.13 -60L2021 71" stroke="hsl(228.5, 77.2%, 51.5%)" stroke-width="1.5"></path><path d="M2024.13 -60L2046.67 214.72" stroke="hsl(228.5, 77.2%, 51.5%)" stroke-width="1.5"></path><path d="M2024.13 -60L1905.58 206.72" stroke="hsl(228.5, 77.2%, 51.5%)" stroke-width="1.5"></path><path d="M2024.13 -60L1694.6 -73.26" stroke="hsl(228.5, 77.2%, 51.5%)" stroke-width="1.5"></path><path d="M2021 71L2021 71" stroke="hsl(228.5, 77.2%, 51.5%)" stroke-width="1.5"></path><path d="M2021 71L2046.67 214.72" stroke="hsl(228.5, 77.2%, 51.5%)" stroke-width="1.5"></path><path d="M2046.67 214.72L2046.67 214.72" stroke="hsl(228.5, 77.2%, 51.5%)" stroke-width="1.5"></path><path d="M2046.67 214.72L1996 352.43" stroke="hsl(228.5, 77.2%, 51.5%)" stroke-width="1.5"></path><path d="M2046.67 214.72L1847.35 375.33" stroke="hsl(228.5, 77.2%, 51.5%)" stroke-width="1.5"></path><path d="M1996 352.43L1996 352.43" stroke="hsl(228.5, 77.2%, 51.5%)" stroke-width="1.5"></path><path d="M2024.17 828.02L2024.17 828.02" stroke="hsl(228.5, 77.2%, 51.5%)" stroke-width="1.5"></path><path d="M2024.17 828.02L2049.44 551.27" stroke="hsl(228.5, 77.2%, 51.5%)" stroke-width="1.5"></path><path d="M2024.17 828.02L1717.93 674.06" stroke="hsl(228.5, 77.2%, 51.5%)" stroke-width="1.5"></path><circle r="25" cx="344.1" cy="658.66" fill="url(#SvgjsRadialGradient1017)"></circle><circle r="25" cx="817.12" cy="843.74" fill="url(#SvgjsRadialGradient1017)"></circle><circle r="25" cx="952.06" cy="492.4" fill="url(#SvgjsRadialGradient1017)"></circle><circle r="25" cx="1694.6" cy="-73.26" fill="url(#SvgjsRadialGradient1017)"></circle><circle r="25" cx="1702.66" cy="339.67" fill="url(#SvgjsRadialGradient1017)"></circle><circle r="25" cx="1751.07" cy="506.68" fill="url(#SvgjsRadialGradient1017)"></circle><circle r="25" cx="2049.44" cy="551.27" fill="url(#SvgjsRadialGradient1017)"></circle><circle r="5" cx="-41.66" cy="658.9" fill="#8b9ad9"></circle><circle r="5" cx="-56.99" cy="809.66" fill="#8b9ad9"></circle><circle r="5" cx="41.18" cy="646.35" fill="#8b9ad9"></circle><circle r="5" cx="62.7" cy="797.13" fill="#8b9ad9"></circle><circle r="5" cx="243.59" cy="650.3" fill="#8b9ad9"></circle><circle r="5" cx="245.52" cy="803.91" fill="#8b9ad9"></circle><circle r="5" cx="364.96" cy="799.76" fill="#8b9ad9"></circle><circle r="5" cx="518.91" cy="667.41" fill="#8b9ad9"></circle><circle r="5" cx="497.27" cy="850.29" fill="#8b9ad9"></circle><circle r="5" cx="649.14" cy="707.82" fill="#8b9ad9"></circle><circle r="5" cx="701.37" cy="797.46" fill="#8b9ad9"></circle><circle r="5" cx="808.63" cy="517.41" fill="#8b9ad9"></circle><circle r="5" cx="810.45" cy="678.7" fill="#8b9ad9"></circle><circle r="5" cx="968.14" cy="658.26" fill="#8b9ad9"></circle><circle r="5" cx="957.08" cy="854.59" fill="#8b9ad9"></circle><circle r="5" cx="1118.01" cy="507.59" fill="#8b9ad9"></circle><circle r="5" cx="1123.27" cy="797.13" fill="#8b9ad9"></circle><circle r="5" cx="1259.63" cy="353.59" fill="#8b9ad9"></circle><circle r="5" cx="1274.21" cy="503.93" fill="#8b9ad9"></circle><circle r="5" cx="1264.66" cy="647.59" fill="#8b9ad9"></circle><circle r="5" cx="1245.49" cy="816.68" fill="#8b9ad9"></circle><circle r="5" cx="1459.52" cy="246.92" fill="#8b9ad9"></circle><circle r="5" cx="1400.67" cy="386.28" fill="#8b9ad9"></circle><circle r="5" cx="1389.54" cy="538.56" fill="#8b9ad9"></circle><circle r="5" cx="1460.25" cy="818.72" fill="#8b9ad9"></circle><circle r="5" cx="1558.64" cy="-93.59" fill="#8b9ad9"></circle><circle r="5" cx="1568.82" cy="83" fill="#8b9ad9"></circle><circle r="5" cx="1567.69" cy="239.21" fill="#8b9ad9"></circle><circle r="5" cx="1589.66" cy="389.76" fill="#8b9ad9"></circle><circle r="5" cx="1555.76" cy="551.62" fill="#8b9ad9"></circle><circle r="5" cx="1583.87" cy="687.46" fill="#8b9ad9"></circle><circle r="5" cx="1591.61" cy="844.37" fill="#8b9ad9"></circle><circle r="5" cx="1718.6" cy="252.37" fill="#8b9ad9"></circle><circle r="5" cx="1717.93" cy="674.06" fill="#8b9ad9"></circle><circle r="5" cx="1905.58" cy="206.72" fill="#8b9ad9"></circle><circle r="5" cx="1847.35" cy="375.33" fill="#8b9ad9"></circle><circle r="5" cx="1839.45" cy="494.89" fill="#8b9ad9"></circle><circle r="5" cx="1887.48" cy="689.47" fill="#8b9ad9"></circle><circle r="5" cx="1874.31" cy="860.55" fill="#8b9ad9"></circle><circle r="5" cx="2024.13" cy="-60" fill="#8b9ad9"></circle><circle r="5" cx="2021" cy="71" fill="#8b9ad9"></circle><circle r="5" cx="2046.67" cy="214.72" fill="#8b9ad9"></circle><circle r="5" cx="1996" cy="352.43" fill="#8b9ad9"></circle><circle r="5" cx="2024.17" cy="828.02" fill="#8b9ad9"></circle></g><defs><mask id="SvgjsMask1016"><rect width="1920" height="750" fill="#ffffff"></rect></mask><radialGradient id="SvgjsRadialGradient1017"><stop stop-color="#ffffff" offset="0.1"></stop><stop stop-color="#1735b3" offset="0.2"></stop><stop stop-color="rgba(23, 53, 179, 0)" offset="1"></stop></radialGradient></defs></svg>